<svg width="100" height="59" viewBox="0 0 100 59" fill="none" xmlns="http://www.w3.org/2000/svg">
<path d="M64.577 9.55273V26.6137L49.7891 35.1667V18.0907C49.7891 18.0907 64.1628 9.79185 64.577 9.55273Z" fill="#FFD700" stroke="white" stroke-width="0.209598" stroke-miterlimit="2" stroke-linejoin="round"/>
<path d="M49.7883 18.0907V35.1667L35 26.6137V9.55273C35.4143 9.79185 49.7883 18.0907 49.7883 18.0907Z" fill="#FF0000" stroke="white" stroke-width="0.209598" stroke-miterlimit="2" stroke-linejoin="round"/>
<path d="M64.5763 9.55304C64.1621 9.79215 49.7883 18.091 49.7883 18.091C49.7883 18.091 35.4143 9.79215 35 9.55304L49.7883 1L64.5763 9.55304Z" fill="#4E008E" stroke="white" stroke-width="0.17472" stroke-miterlimit="2" stroke-linejoin="round"/>
<path d="M1.1 58L2.88 43.58H6.34L5.48 50.6C5.6 50.28 5.78 49.9933 6.02 49.74L11.88 43.58H15.72L8.96 50.62L14.16 58H9.96L5.78 51.92C5.62 51.6933 5.5 51.38 5.42 50.98L4.56 58H1.1ZM26.4133 47.72L25.1533 58H21.8733L21.9733 57.14L21.3333 57.62C20.6133 58.02 19.8199 58.22 18.9533 58.22C17.7399 58.22 16.7599 57.82 16.0133 57.02C15.2666 56.22 14.8933 55.16 14.8933 53.84C14.8933 51.7733 15.4933 50.1133 16.6933 48.86C17.8933 47.6067 19.4999 46.98 21.5133 46.98C22.3933 46.98 23.3133 47.0667 24.2733 47.24C24.5799 47.2933 24.9266 47.3667 25.3133 47.46C25.7133 47.5533 26.0799 47.64 26.4133 47.72ZM22.2333 55.04L22.9133 49.72C22.4066 49.5467 21.8999 49.46 21.3933 49.46C20.4733 49.46 19.7066 49.8 19.0933 50.48C18.4799 51.16 18.1733 52.0067 18.1733 53.02C18.1733 53.7933 18.3866 54.4333 18.8133 54.94C19.2399 55.4467 19.7799 55.7 20.4333 55.7C21.0466 55.7 21.6466 55.48 22.2333 55.04ZM39.0891 47.72L37.8291 58H34.5491L34.6491 57.14L34.0091 57.62C33.2891 58.02 32.4957 58.22 31.6291 58.22C30.4157 58.22 29.4357 57.82 28.6891 57.02C27.9424 56.22 27.5691 55.16 27.5691 53.84C27.5691 51.7733 28.1691 50.1133 29.3691 48.86C30.5691 47.6067 32.1757 46.98 34.1891 46.98C35.0691 46.98 35.9891 47.0667 36.9491 47.24C37.2557 47.2933 37.6024 47.3667 37.9891 47.46C38.3891 47.5533 38.7557 47.64 39.0891 47.72ZM34.9091 55.04L35.5891 49.72C35.0824 49.5467 34.5757 49.46 34.0691 49.46C33.1491 49.46 32.3824 49.8 31.7691 50.48C31.1557 51.16 30.8491 52.0067 30.8491 53.02C30.8491 53.7933 31.0624 54.4333 31.4891 54.94C31.9157 55.4467 32.4557 55.7 33.1091 55.7C33.7224 55.7 34.3224 55.48 34.9091 55.04ZM38.6048 58L46.2248 43.58H49.7448L54.0448 58H50.2848L49.4848 54.84H43.8448L42.3448 58H38.6048ZM47.2448 47.96L44.9848 52.58H48.8848L47.7248 47.96C47.6448 47.6933 47.6048 47.3733 47.6048 47V46.72C47.5382 47.0533 47.4782 47.3133 47.4248 47.5C47.3848 47.6733 47.3248 47.8267 47.2448 47.96ZM54.5695 49.58L54.8695 47.28H56.3695L56.3895 47.1C56.5229 45.98 57.0162 45.0733 57.8695 44.38C58.7362 43.6733 59.7895 43.32 61.0295 43.32C61.4829 43.32 61.8895 43.3467 62.2495 43.4C62.6229 43.4533 63.1029 43.56 63.6895 43.72L63.4295 45.8C62.8295 45.5867 62.2562 45.48 61.7095 45.48C60.4429 45.48 59.7562 45.9933 59.6495 47.02L59.6095 47.28H62.2295L61.9495 49.56H59.3295L58.2895 58H55.0295L56.0695 49.58H54.5695ZM61.1781 58L62.4981 47.28H65.7381L65.4781 49.46C66.1315 48.58 66.7115 47.9533 67.2181 47.58C67.7381 47.2067 68.2648 47.02 68.7981 47.02C69.5315 47.02 70.2648 47.3133 70.9981 47.9L69.4181 50.96C68.8315 50.4533 68.2715 50.2 67.7381 50.2C67.1248 50.2 66.5381 50.5333 65.9781 51.2C65.4181 51.8533 65.0848 52.6067 64.9781 53.46L64.4181 58H61.1781ZM70.4755 58L71.7955 47.28H75.0355L73.7155 58H70.4755ZM71.9755 45.02C71.9755 44.4733 72.1688 44.0133 72.5555 43.64C72.9421 43.2667 73.4088 43.08 73.9555 43.08C74.3555 43.08 74.7021 43.26 74.9955 43.62C75.2888 43.98 75.4355 44.4133 75.4355 44.92C75.4355 45.36 75.2555 45.74 74.8955 46.06C74.5488 46.3667 74.1288 46.52 73.6355 46.52C73.1821 46.52 72.7888 46.3733 72.4555 46.08C72.1355 45.7733 71.9755 45.42 71.9755 45.02ZM75.9633 58L77.7433 43.58H81.0033L79.9833 51.86L84.4433 47.28H88.2833L83.3233 52.16L87.5033 58H83.4633L79.8833 52.64L79.2033 58H75.9633ZM99.7141 47.72L98.4541 58H95.1741L95.2741 57.14L94.6341 57.62C93.9141 58.02 93.1207 58.22 92.2541 58.22C91.0407 58.22 90.0607 57.82 89.3141 57.02C88.5674 56.22 88.1941 55.16 88.1941 53.84C88.1941 51.7733 88.7941 50.1133 89.9941 48.86C91.1941 47.6067 92.8007 46.98 94.8141 46.98C95.6941 46.98 96.6141 47.0667 97.5741 47.24C97.8807 47.2933 98.2274 47.3667 98.6141 47.46C99.0141 47.5533 99.3807 47.64 99.7141 47.72ZM95.5341 55.04L96.2141 49.72C95.7074 49.5467 95.2007 49.46 94.6941 49.46C93.7741 49.46 93.0074 49.8 92.3941 50.48C91.7807 51.16 91.4741 52.0067 91.4741 53.02C91.4741 53.7933 91.6874 54.4333 92.1141 54.94C92.5407 55.4467 93.0807 55.7 93.7341 55.7C94.3474 55.7 94.9474 55.48 95.5341 55.04Z" fill="#4E008E"/>
</svg>
